<?xml version="1.0" encoding="UTF-8"?>
<svg id="Layer_2" data-name="Layer 2" xmlns="http://www.w3.org/2000/svg" xmlns:xlink="http://www.w3.org/1999/xlink" viewBox="0 0 120.81 133.85">
  <defs>
    <style>
      .cls-1 {
        clip-path: url(#clippath);
      }

      .cls-2 {
        fill: #f55454;
      }

      .cls-3 {
        fill: #fff;
      }

      .cls-4 {
        fill: #feb13a;
      }

      .cls-5 {
        fill: #15406c;
      }
    </style>
    <clipPath id="clippath">
      <path class="cls-2" d="M93.38,0C94.87,0,96.32,.24,97.67,.69c5.48,1.8,9.43,6.95,9.43,13.03,0,7.57-6.14,13.71-13.71,13.71h27.43C120.81,12.28,108.53,0,93.38,0Z"/>
    </clipPath>
  </defs>
  <g id="Layer_1-2" data-name="Layer 1">
    <g>
      <path class="cls-2" d="M54,133.85l-1.02-9.99,12.27-2.52c8.33-1.71,16.39,3.92,17.65,12.32h0s-28.9,.19-28.9,.19Z"/>
      <path class="cls-3" d="M103.03,57.42c3.01,9.34,.77,19.39-5.53,26.53l-4.28,3.92h-.02s-14.22,13.06-14.22,13.06c-5.2,6.53-13.1,10.34-21.45,10.34H22.8L87.47,54.2c4.74,1.05,9.69,.82,14.31-.67l1.25,3.89Z"/>
      <path class="cls-3" d="M93.38,0c1.49,0,2.94,.24,4.28,.68,5.48,1.8,9.43,6.95,9.43,13.03,0,7.57-6.14,13.71-13.71,13.71s-13.72-6.14-13.72-13.71S85.8,0,93.38,0Z"/>
      <path class="cls-5" d="M93.38,27.43l8.4,26.11c-4.63,1.49-9.57,1.72-14.31,.67L22.8,111.27H0l30.11-26.58c-.23-7.48,2.6-14.69,7.78-19.99l1.97-1.83,.02-.02,18.35-17.1c3.03-2.81,6.64-4.91,10.59-6.14-1.89-3.79-2.86-7.96-2.86-12.19,0-15.14,12.28-27.43,27.43-27.43-7.58,0-13.72,6.14-13.72,13.72s6.14,13.71,13.72,13.71Z"/>
      <path class="cls-5" d="M89.05,19.72l-2.79-4.18,4.83-3.98c3.28-2.7,8.16-2.1,10.68,1.33h0s-12.73,6.83-12.73,6.83Z"/>
      <g>
        <path class="cls-2" d="M93.38,0C94.87,0,96.32,.24,97.67,.69c5.48,1.8,9.43,6.95,9.43,13.03,0,7.57-6.14,13.71-13.71,13.71h27.43C120.81,12.28,108.53,0,93.38,0Z"/>
        <g class="cls-1">
          <path class="cls-4" d="M96.19,0c1.56,0,3.06,.25,4.46,.71,5.7,1.88,9.82,7.25,9.82,13.57,0,7.89-6.4,14.28-14.28,14.28s-14.29-6.4-14.29-14.28S88.3,0,96.19,0Z"/>
        </g>
      </g>
    </g>
  </g>
</svg>