<?xml version="1.0" encoding="UTF-8"?>
<svg id="Layer_2" data-name="Layer 2" xmlns="http://www.w3.org/2000/svg" xmlns:xlink="http://www.w3.org/1999/xlink" viewBox="0 0 121.1 134.18">
  <defs>
    <style>
      .cls-1 {
        clip-path: url(#clippath);
      }

      .cls-2 {
        fill: #f55454;
      }

      .cls-3 {
        fill: #fff;
      }

      .cls-4 {
        fill: #feb13a;
      }

      .cls-5 {
        fill: #15406c;
      }
    </style>
    <clipPath id="clippath">
      <path class="cls-2" d="M93.61,0c1.5,0,2.95,.24,4.3,.69,5.49,1.8,9.45,6.97,9.45,13.06,0,7.59-6.16,13.74-13.74,13.74h27.49C121.1,12.31,108.79,0,93.61,0Z"/>
    </clipPath>
  </defs>
  <g id="Layer_1-2" data-name="Layer 1">
    <g>
      <path class="cls-2" d="M54.14,134.18l-1.03-10.01,12.3-2.53c8.35-1.72,16.43,3.92,17.7,12.36h0s-28.97,.19-28.97,.19Z"/>
      <path class="cls-3" d="M93.61,0c1.5,0,2.95,.24,4.3,.69,5.49,1.8,9.45,6.97,9.45,13.06,0,7.59-6.16,13.74-13.74,13.74s-13.75-6.16-13.75-13.74S86.02,0,93.61,0Z"/>
      <path class="cls-5" d="M22.85,111.54H57.68c8.37,0,16.28-3.82,21.5-10.37l14.25-13.07,.02-.02,4.29-3.93c6.32-7.16,8.55-17.24,5.54-26.6l-1.25-3.9s0,0,0,0l-8.42-26.17c-7.59,0-13.75-6.16-13.75-13.74S86.02,0,93.61,0c-15.19,0-27.5,12.31-27.5,27.49,0,4.24,.98,8.43,2.87,12.22-3.96,1.23-7.58,3.33-10.62,6.15l-18.4,17.14s-.01,.01-.02,.01l-1.97,1.83c-5.19,5.32-8.03,12.54-7.8,20.04L0,111.54H22.85m74.17-28.09l-4.21,3.86-.02,.02-.04,.03-14.25,13.08-.06,.05-.05,.06c-5.05,6.35-12.6,9.98-20.71,9.98H25.51l62.46-55.11c1.84,.37,3.74,.56,5.63,.56,2.64,0,5.24-.36,7.77-1.08l.95,2.96c2.85,8.83,.81,18.64-5.3,25.59Z"/>
      <path class="cls-5" d="M89.27,19.77l-2.79-4.19,4.85-3.99c3.29-2.71,8.18-2.1,10.71,1.33h0s-12.76,6.85-12.76,6.85Z"/>
      <g>
        <path class="cls-2" d="M93.61,0c1.5,0,2.95,.24,4.3,.69,5.49,1.8,9.45,6.97,9.45,13.06,0,7.59-6.16,13.74-13.74,13.74h27.49C121.1,12.31,108.79,0,93.61,0Z"/>
        <g class="cls-1">
          <path class="cls-4" d="M96.42,0c1.56,0,3.07,.25,4.47,.72,5.72,1.88,9.84,7.26,9.84,13.61,0,7.91-6.41,14.32-14.32,14.32s-14.32-6.41-14.32-14.32S88.51,0,96.42,0Z"/>
        </g>
      </g>
      <path class="cls-3" d="M97.02,83.46l-4.21,3.86-.02,.02-.04,.03-14.25,13.08-.06,.05-.05,.06c-5.05,6.35-12.6,9.98-20.71,9.98H25.51l62.46-55.11c1.84,.37,3.74,.56,5.63,.56,2.64,0,5.24-.36,7.77-1.08l.95,2.96c2.85,8.83,.81,18.64-5.3,25.59Z"/>
    </g>
  </g>
</svg>