<?xml version="1.0" encoding="UTF-8"?>
<svg id="Layer_2" data-name="Layer 2" xmlns="http://www.w3.org/2000/svg" viewBox="0 0 435 135.34">
  <defs>
    <style>
      .cls-1 {
        fill: #fff;
      }
    </style>
  </defs>
  <g id="Layer_1-2" data-name="Layer 1">
    <g>
      <path class="cls-1" d="M136.04,133.85V49.44c0-4.85,1.04-9.24,3.12-13.15,2.08-3.91,5.03-6.98,8.84-9.21,3.81-2.23,8.25-3.34,13.3-3.34,3.47,0,6.69,.57,9.66,1.71,2.97,1.14,5.55,2.7,7.73,4.68l-6.09,15.01c-1.29-.89-2.6-1.61-3.94-2.15-3.6-1.46-6.65-.97-9.21,1.55-2.02,1.99-3.05,4.78-3.05,7.61v5.03h17.09v3.62c0,7.6-6.16,13.77-13.77,13.77h-3.32v59.3h-20.36Z"/>
      <path class="cls-1" d="M235.94,65.79h0c-2.48-3.57-5.8-6.46-9.96-8.69-4.16-2.23-9.02-3.34-14.56-3.34-6.84,0-12.95,1.73-18.35,5.2-5.4,3.47-9.66,8.25-12.78,14.34-3.12,6.09-4.68,13.15-4.68,21.18s1.56,14.81,4.68,20.95c3.12,6.14,7.3,11,12.56,14.56,5.25,3.57,11.15,5.35,17.68,5.35,5.25,0,10.08-1.14,14.49-3.42,4.41-2.28,8-5.15,10.77-8.62v10.55h20.36V55.38h-9.81c-5.75,0-10.4,4.66-10.4,10.4Zm-5.2,45.47c-3.77,4.26-8.67,6.39-14.71,6.39s-10.77-2.13-14.49-6.39c-3.71-4.26-5.57-9.86-5.57-16.79s1.86-12.53,5.57-16.79c3.72-4.26,8.55-6.39,14.49-6.39s10.95,2.13,14.71,6.39c3.77,4.26,5.65,9.86,5.65,16.79s-1.88,12.53-5.65,16.79Z"/>
      <path class="cls-1" d="M210.63,42.9l-5.57-8.36,9.67-7.96c6.57-5.4,16.32-4.19,21.37,2.65h0s-25.46,13.66-25.46,13.66Z"/>
      <path class="cls-1" d="M271.95,133.85V55.38h9.06c5.88,0,10.69,4.68,10.85,10.55h0c2.67-3.57,6.24-6.49,10.7-8.77,4.46-2.28,9.11-3.42,13.97-3.42,18.03,0,27.05,10.7,27.05,32.1v48h-20.21v-46.52c0-11.19-4.71-16.59-14.12-16.2-4.86,0-8.89,1.49-12.11,4.46-3.22,2.97-4.83,6.64-4.83,11v47.26h-20.36Z"/>
      <path class="cls-1" d="M389.38,135.34c-6.54,0-12.43-1.78-17.68-5.35-5.25-3.57-9.44-8.42-12.56-14.56-3.12-6.14-4.68-13.13-4.68-20.95s1.56-15.08,4.68-21.18c3.12-6.09,7.38-10.87,12.78-14.34,5.4-3.47,11.52-5.2,18.35-5.2,5.55,0,10.4,1.11,14.56,3.34,4.16,2.23,7.48,5.13,9.96,8.69h0c0-5.75,4.66-10.4,10.4-10.4h9.81v78.47h-20.36v-10.55c-2.77,3.47-6.37,6.34-10.77,8.62-4.41,2.28-9.24,3.42-14.49,3.42Zm5.5-17.68c6.04,0,10.95-2.13,14.71-6.39,3.77-4.26,5.65-9.86,5.65-16.79s-1.88-12.53-5.65-16.79c-3.77-4.26-8.67-6.39-14.71-6.39s-10.77,2.13-14.49,6.39c-3.71,4.26-5.57,9.86-5.57,16.79s1.86,12.53,5.57,16.79c3.72,4.26,8.55,6.39,14.49,6.39Z"/>
    </g>
    <g>
      <path class="cls-1" d="M65.25,121.34l-12.27,2.52,1.02,9.99,28.9-.19c-1.26-8.41-9.32-14.04-17.65-12.33Z"/>
      <path class="cls-1" d="M22.79,111.27H57.53c8.35,0,16.25-3.8,21.45-10.34l14.23-13.04,.02-.02,4.28-3.92c6.3-7.15,8.53-17.2,5.53-26.53l-1.25-3.89h0l-8.4-26.11s0,0,0,0h27.42c0-15.14-12.28-27.42-27.42-27.42s-27.43,12.28-27.43,27.42c0,4.23,.98,8.41,2.87,12.2-3.95,1.23-7.56,3.32-10.59,6.14l-18.35,17.1s-.01,0-.02,.01l-1.96,1.83c-5.18,5.3-8.01,12.51-7.78,19.99L0,111.27H22.79M97.35,1.64c5.23,1.72,8.74,6.57,8.74,12.08,0,7.01-5.7,12.71-12.71,12.71s-12.71-5.7-12.71-12.71,5.7-12.72,12.71-12.72c1.36,0,2.7,.21,3.97,.64Zm-.57,81.62l-4.2,3.85-.02,.02-.03,.03-14.23,13.04-.06,.05-.05,.06c-5.04,6.33-12.58,9.96-20.67,9.96H25.44l62.31-54.98c1.85,.37,3.74,.56,5.63,.56,2.62,0,5.23-.36,7.75-1.08l.95,2.95c2.83,8.81,.81,18.58-5.29,25.53Z"/>
      <path class="cls-1" d="M86.26,15.55l2.79,4.18,12.73-6.83c-2.52-3.42-7.4-4.03-10.68-1.33l-4.83,3.98Z"/>
    </g>
  </g>
</svg>