<?xml version="1.0" encoding="UTF-8"?>
<svg id="Layer_2" data-name="Layer 2" xmlns="http://www.w3.org/2000/svg" xmlns:xlink="http://www.w3.org/1999/xlink" viewBox="0 0 436.07 135.67">
  <defs>
    <style>
      .cls-1 {
        clip-path: url(#clippath);
      }

      .cls-2 {
        fill: #f55454;
      }

      .cls-3 {
        fill: #fff;
      }

      .cls-4 {
        fill: #feb13a;
      }

      .cls-5 {
        fill: #15406c;
      }
    </style>
    <clipPath id="clippath">
      <path class="cls-2" d="M93.61,0c1.5,0,2.95,.24,4.3,.69,5.49,1.8,9.45,6.97,9.45,13.06,0,7.59-6.16,13.74-13.74,13.74h27.49C121.1,12.31,108.79,0,93.61,0Z"/>
    </clipPath>
  </defs>
  <g id="Layer_1-2" data-name="Layer 1">
    <g>
      <path class="cls-5" d="M136.38,134.18V49.56c0-4.87,1.04-9.26,3.13-13.18,2.09-3.92,5.04-7,8.86-9.24,3.82-2.23,8.27-3.35,13.33-3.35,3.48,0,6.7,.57,9.68,1.71,2.98,1.14,5.56,2.71,7.75,4.69l-6.11,15.05c-1.29-.89-2.61-1.61-3.95-2.16-3.61-1.47-6.67-.98-9.23,1.56-2.02,1.99-3.06,4.79-3.06,7.63v5.05h17.13v3.63c0,7.62-6.18,13.8-13.8,13.8h-3.33v59.44h-20.41Z"/>
      <path class="cls-5" d="M236.52,65.95h0c-2.48-3.58-5.81-6.48-9.98-8.72-4.17-2.23-9.04-3.35-14.6-3.35-6.85,0-12.99,1.74-18.4,5.21-5.41,3.48-9.68,8.27-12.81,14.38s-4.69,13.18-4.69,21.23,1.56,14.85,4.69,21.01c3.13,6.16,7.32,11.02,12.59,14.6,5.26,3.57,11.17,5.36,17.73,5.36,5.26,0,10.11-1.14,14.53-3.43,4.42-2.28,8.02-5.16,10.8-8.64v10.58h20.41V55.52h-9.83c-5.76,0-10.43,4.67-10.43,10.43Zm-5.22,45.59c-3.78,4.27-8.69,6.41-14.75,6.41s-10.8-2.13-14.53-6.41c-3.72-4.27-5.59-9.88-5.59-16.83s1.86-12.56,5.59-16.83c3.73-4.27,8.57-6.41,14.53-6.41s10.97,2.14,14.75,6.41c3.77,4.27,5.66,9.88,5.66,16.83s-1.89,12.57-5.66,16.83Z"/>
      <path class="cls-5" d="M211.14,43.01l-5.58-8.38,9.69-7.98c6.58-5.42,16.36-4.2,21.42,2.66h0s-25.53,13.69-25.53,13.69Z"/>
      <path class="cls-5" d="M272.61,134.18V55.52h9.08c5.89,0,10.71,4.69,10.88,10.58h0c2.68-3.58,6.26-6.5,10.73-8.79,4.47-2.28,9.14-3.43,14-3.43,18.08,0,27.11,10.73,27.11,32.18v48.12h-20.26v-46.63c0-11.22-4.72-16.63-14.15-16.24-4.87,0-8.92,1.49-12.14,4.47-3.23,2.98-4.84,6.65-4.84,11.02v47.37h-20.41Z"/>
      <path class="cls-5" d="M390.33,135.67c-6.55,0-12.46-1.79-17.73-5.36-5.27-3.58-9.46-8.44-12.59-14.6-3.13-6.16-4.69-13.16-4.69-21.01s1.56-15.12,4.69-21.23,7.4-10.9,12.81-14.38c5.41-3.48,11.55-5.21,18.4-5.21,5.56,0,10.43,1.12,14.6,3.35,4.17,2.23,7.5,5.14,9.98,8.72h0c0-5.76,4.67-10.43,10.43-10.43h9.83v78.66h-20.41v-10.58c-2.78,3.48-6.38,6.36-10.8,8.64-4.42,2.28-9.26,3.43-14.53,3.43Zm5.51-17.73c6.06,0,10.97-2.13,14.75-6.41,3.77-4.27,5.66-9.88,5.66-16.83s-1.89-12.56-5.66-16.83c-3.78-4.27-8.69-6.41-14.75-6.41s-10.8,2.14-14.53,6.41c-3.72,4.27-5.59,9.88-5.59,16.83s1.86,12.57,5.59,16.83c3.73,4.27,8.57,6.41,14.53,6.41Z"/>
    </g>
    <g>
      <path class="cls-2" d="M54.14,134.18l-1.03-10.01,12.3-2.53c8.35-1.72,16.43,3.92,17.7,12.36h0s-28.97,.19-28.97,.19Z"/>
      <path class="cls-3" d="M93.61,0c1.5,0,2.95,.24,4.3,.69,5.49,1.8,9.45,6.97,9.45,13.06,0,7.59-6.16,13.74-13.74,13.74s-13.75-6.16-13.75-13.74S86.02,0,93.61,0Z"/>
      <path class="cls-5" d="M22.85,111.54H57.68c8.37,0,16.28-3.82,21.5-10.37l14.25-13.07,.02-.02,4.29-3.93c6.32-7.16,8.55-17.24,5.54-26.6l-1.25-3.9s0,0,0,0l-8.42-26.17c-7.59,0-13.75-6.16-13.75-13.74S86.02,0,93.61,0c-15.19,0-27.5,12.31-27.5,27.49,0,4.24,.98,8.43,2.87,12.22-3.96,1.23-7.58,3.33-10.62,6.15l-18.4,17.14s-.01,.01-.02,.01l-1.97,1.83c-5.19,5.32-8.03,12.54-7.8,20.04L0,111.54H22.85m74.17-28.09l-4.21,3.86-.02,.02-.04,.03-14.25,13.08-.06,.05-.05,.06c-5.05,6.35-12.6,9.98-20.71,9.98H25.51l62.46-55.11c1.84,.37,3.74,.56,5.63,.56,2.64,0,5.24-.36,7.77-1.08l.95,2.96c2.85,8.83,.81,18.64-5.3,25.59Z"/>
      <path class="cls-5" d="M89.27,19.77l-2.79-4.19,4.85-3.99c3.29-2.71,8.18-2.1,10.71,1.33h0s-12.76,6.85-12.76,6.85Z"/>
      <g>
        <path class="cls-2" d="M93.61,0c1.5,0,2.95,.24,4.3,.69,5.49,1.8,9.45,6.97,9.45,13.06,0,7.59-6.16,13.74-13.74,13.74h27.49C121.1,12.31,108.79,0,93.61,0Z"/>
        <g class="cls-1">
          <path class="cls-4" d="M96.42,0c1.56,0,3.07,.25,4.47,.72,5.72,1.88,9.84,7.26,9.84,13.61,0,7.91-6.41,14.32-14.32,14.32s-14.32-6.41-14.32-14.32S88.51,0,96.42,0Z"/>
        </g>
      </g>
      <path class="cls-3" d="M97.02,83.46l-4.21,3.86-.02,.02-.04,.03-14.25,13.08-.06,.05-.05,.06c-5.05,6.35-12.6,9.98-20.71,9.98H25.51l62.46-55.11c1.84,.37,3.74,.56,5.63,.56,2.64,0,5.24-.36,7.77-1.08l.95,2.96c2.85,8.83,.81,18.64-5.3,25.59Z"/>
    </g>
  </g>
</svg>