<?xml version="1.0" encoding="UTF-8"?>
<svg id="Layer_2" data-name="Layer 2" xmlns="http://www.w3.org/2000/svg" viewBox="0 0 120.8 133.85">
  <defs>
    <style>
      .cls-1 {
        fill: #fff;
      }
    </style>
  </defs>
  <g id="Layer_1-2" data-name="Layer 1">
    <g>
      <path class="cls-1" d="M65.25,121.34l-12.27,2.52,1.02,9.99,28.9-.19c-1.26-8.41-9.32-14.04-17.65-12.33Z"/>
      <path class="cls-1" d="M22.79,111.27H57.53c8.35,0,16.25-3.8,21.45-10.34l14.23-13.04,.02-.02,4.28-3.92c6.3-7.15,8.53-17.2,5.53-26.53l-1.25-3.89h0l-8.4-26.11s0,0,0,0h27.42c0-15.14-12.28-27.42-27.42-27.42s-27.43,12.28-27.43,27.42c0,4.23,.98,8.41,2.87,12.2-3.95,1.23-7.56,3.32-10.59,6.14l-18.35,17.1s-.01,0-.02,.01l-1.96,1.83c-5.18,5.3-8.01,12.51-7.78,19.99L0,111.27H22.79M97.35,1.64c5.23,1.72,8.74,6.57,8.74,12.08,0,7.01-5.7,12.71-12.71,12.71s-12.71-5.7-12.71-12.71,5.7-12.72,12.71-12.72c1.36,0,2.7,.21,3.97,.64Zm-.57,81.62l-4.2,3.85-.02,.02-.03,.03-14.23,13.04-.06,.05-.05,.06c-5.04,6.33-12.58,9.96-20.67,9.96H25.44l62.31-54.98c1.85,.37,3.74,.56,5.63,.56,2.62,0,5.23-.36,7.75-1.08l.95,2.95c2.83,8.81,.81,18.58-5.29,25.53Z"/>
      <path class="cls-1" d="M86.26,15.55l2.79,4.18,12.73-6.83c-2.52-3.42-7.4-4.03-10.68-1.33l-4.83,3.98Z"/>
    </g>
  </g>
</svg>