<?xml version="1.0" encoding="UTF-8"?>
<svg id="Layer_2" data-name="Layer 2" xmlns="http://www.w3.org/2000/svg" xmlns:xlink="http://www.w3.org/1999/xlink" viewBox="0 0 435 135.34">
  <defs>
    <style>
      .cls-1 {
        clip-path: url(#clippath);
      }

      .cls-2 {
        fill: #f55454;
      }

      .cls-3 {
        fill: #fff;
      }

      .cls-4 {
        fill: #feb13a;
      }

      .cls-5 {
        fill: #15406c;
      }
    </style>
    <clipPath id="clippath">
      <path class="cls-2" d="M93.38,0C94.87,0,96.32,.24,97.67,.69c5.48,1.8,9.43,6.95,9.43,13.03,0,7.57-6.14,13.71-13.71,13.71h27.43C120.81,12.28,108.53,0,93.38,0Z"/>
    </clipPath>
  </defs>
  <g id="Layer_1-2" data-name="Layer 1">
    <g>
      <path class="cls-5" d="M136.05,133.85V49.44c0-4.85,1.04-9.24,3.12-13.15,2.08-3.91,5.03-6.98,8.84-9.21,3.81-2.23,8.25-3.34,13.3-3.34,3.47,0,6.69,.57,9.66,1.71,2.97,1.14,5.55,2.7,7.73,4.68l-6.09,15.01c-1.29-.89-2.6-1.61-3.94-2.15-3.6-1.46-6.65-.97-9.21,1.55-2.02,1.99-3.05,4.78-3.05,7.61v5.03h17.09v3.62c0,7.6-6.16,13.77-13.77,13.77h-3.32v59.3h-20.36Z"/>
      <path class="cls-5" d="M235.94,65.79h0c-2.48-3.57-5.8-6.46-9.96-8.69-4.16-2.23-9.02-3.34-14.56-3.34-6.84,0-12.95,1.73-18.35,5.2-5.4,3.47-9.66,8.25-12.78,14.34s-4.68,13.15-4.68,21.18,1.56,14.81,4.68,20.95c3.12,6.14,7.3,11,12.56,14.56,5.25,3.57,11.15,5.35,17.68,5.35,5.25,0,10.08-1.14,14.49-3.42,4.41-2.28,8-5.15,10.77-8.62v10.55h20.36V55.38h-9.81c-5.75,0-10.4,4.66-10.4,10.4Zm-5.2,45.47c-3.77,4.26-8.67,6.39-14.71,6.39s-10.77-2.13-14.49-6.39c-3.71-4.26-5.57-9.86-5.57-16.79s1.86-12.53,5.57-16.79c3.72-4.26,8.55-6.39,14.49-6.39s10.95,2.13,14.71,6.39c3.77,4.26,5.65,9.86,5.65,16.79s-1.88,12.53-5.65,16.79Z"/>
      <path class="cls-5" d="M210.63,42.9l-5.57-8.36,9.67-7.96c6.57-5.4,16.32-4.19,21.37,2.65h0s-25.46,13.66-25.46,13.66Z"/>
      <path class="cls-5" d="M271.95,133.85V55.38h9.06c5.88,0,10.69,4.68,10.85,10.55h0c2.67-3.57,6.24-6.49,10.7-8.77,4.46-2.28,9.11-3.42,13.97-3.42,18.03,0,27.05,10.7,27.05,32.1v48h-20.21v-46.52c0-11.19-4.71-16.59-14.12-16.2-4.86,0-8.89,1.49-12.11,4.46-3.22,2.97-4.83,6.64-4.83,11v47.26h-20.36Z"/>
      <path class="cls-5" d="M389.38,135.34c-6.54,0-12.43-1.78-17.68-5.35-5.25-3.57-9.44-8.42-12.56-14.56-3.12-6.14-4.68-13.13-4.68-20.95s1.56-15.08,4.68-21.18,7.38-10.87,12.78-14.34c5.4-3.47,11.52-5.2,18.35-5.2,5.55,0,10.4,1.11,14.56,3.34,4.16,2.23,7.48,5.13,9.96,8.69h0c0-5.75,4.66-10.4,10.4-10.4h9.81v78.47h-20.36v-10.55c-2.77,3.47-6.37,6.34-10.77,8.62-4.41,2.28-9.24,3.42-14.49,3.42Zm5.5-17.68c6.04,0,10.95-2.13,14.71-6.39,3.77-4.26,5.65-9.86,5.65-16.79s-1.88-12.53-5.65-16.79c-3.77-4.26-8.67-6.39-14.71-6.39s-10.77,2.13-14.49,6.39c-3.71,4.26-5.57,9.86-5.57,16.79s1.86,12.53,5.57,16.79c3.72,4.26,8.55,6.39,14.49,6.39Z"/>
    </g>
    <g>
      <path class="cls-2" d="M54,133.85l-1.02-9.99,12.27-2.52c8.33-1.71,16.39,3.92,17.65,12.32h0s-28.9,.19-28.9,.19Z"/>
      <path class="cls-3" d="M103.03,57.42c3.01,9.34,.77,19.39-5.53,26.53l-4.28,3.92h-.02s-14.22,13.06-14.22,13.06c-5.2,6.53-13.1,10.34-21.45,10.34H22.8L87.47,54.2c4.74,1.05,9.69,.82,14.31-.67l1.25,3.89Z"/>
      <path class="cls-3" d="M93.38,0c1.49,0,2.94,.24,4.28,.68,5.48,1.8,9.43,6.95,9.43,13.03,0,7.57-6.14,13.71-13.71,13.71s-13.72-6.14-13.72-13.71S85.8,0,93.38,0Z"/>
      <path class="cls-5" d="M93.38,27.43l8.4,26.11c-4.63,1.49-9.57,1.72-14.31,.67L22.8,111.27H0l30.11-26.58c-.23-7.48,2.6-14.69,7.78-19.99l1.97-1.83,.02-.02,18.35-17.1c3.03-2.81,6.64-4.91,10.59-6.14-1.89-3.79-2.86-7.96-2.86-12.19,0-15.14,12.28-27.43,27.43-27.43-7.58,0-13.72,6.14-13.72,13.72s6.14,13.71,13.72,13.71Z"/>
      <path class="cls-5" d="M89.05,19.72l-2.79-4.18,4.83-3.98c3.28-2.7,8.16-2.1,10.68,1.33h0s-12.73,6.83-12.73,6.83Z"/>
      <g>
        <path class="cls-2" d="M93.38,0C94.87,0,96.32,.24,97.67,.69c5.48,1.8,9.43,6.95,9.43,13.03,0,7.57-6.14,13.71-13.71,13.71h27.43C120.81,12.28,108.53,0,93.38,0Z"/>
        <g class="cls-1">
          <path class="cls-4" d="M96.19,0c1.56,0,3.06,.25,4.46,.71,5.7,1.88,9.82,7.25,9.82,13.57,0,7.89-6.4,14.28-14.28,14.28s-14.29-6.4-14.29-14.28S88.3,0,96.19,0Z"/>
        </g>
      </g>
    </g>
  </g>
</svg>