<?xml version="1.0" encoding="UTF-8"?>
<svg id="Layer_2" data-name="Layer 2" xmlns="http://www.w3.org/2000/svg" viewBox="0 0 298.96 112.13">
  <defs>
    <style>
      .cls-1 {
        fill: #15406c;
      }
    </style>
  </defs>
  <g id="Layer_1-2" data-name="Layer 1">
    <g>
      <path class="cls-1" d="M0,110.64V26.23c0-4.85,1.04-9.24,3.12-13.15,2.08-3.91,5.03-6.98,8.84-9.21C15.78,1.63,20.21,.52,25.26,.52c3.47,0,6.69,.57,9.66,1.71,2.97,1.14,5.55,2.7,7.73,4.68l-6.09,15.01c-1.29-.89-2.6-1.61-3.94-2.15-3.6-1.46-6.65-.97-9.21,1.55-2.02,1.99-3.05,4.78-3.05,7.61v5.03h17.09v3.62c0,7.6-6.16,13.77-13.77,13.77h-3.32v59.3H0Z"/>
      <path class="cls-1" d="M99.9,42.58h0c-2.48-3.57-5.8-6.46-9.96-8.69-4.16-2.23-9.02-3.34-14.56-3.34-6.84,0-12.95,1.73-18.35,5.2-5.4,3.47-9.66,8.25-12.78,14.34s-4.68,13.15-4.68,21.18,1.56,14.81,4.68,20.95c3.12,6.14,7.3,11,12.56,14.56,5.25,3.57,11.15,5.35,17.68,5.35,5.25,0,10.08-1.14,14.49-3.42,4.41-2.28,8-5.15,10.77-8.62v10.55h20.36V32.17h-9.81c-5.75,0-10.4,4.66-10.4,10.4Zm-5.2,45.47c-3.77,4.26-8.67,6.39-14.71,6.39s-10.77-2.13-14.49-6.39c-3.71-4.26-5.57-9.86-5.57-16.79s1.86-12.53,5.57-16.79c3.72-4.26,8.55-6.39,14.49-6.39s10.95,2.13,14.71,6.39c3.77,4.26,5.65,9.86,5.65,16.79s-1.88,12.53-5.65,16.79Z"/>
      <path class="cls-1" d="M74.58,19.7l-5.57-8.36,9.67-7.96c6.57-5.4,16.32-4.19,21.37,2.65h0s-25.46,13.66-25.46,13.66Z"/>
      <path class="cls-1" d="M135.9,110.64V32.17h9.06c5.88,0,10.69,4.68,10.85,10.55h0c2.67-3.57,6.24-6.49,10.7-8.77,4.46-2.28,9.11-3.42,13.97-3.42,18.03,0,27.05,10.7,27.05,32.1v48h-20.21v-46.52c0-11.19-4.71-16.59-14.12-16.2-4.86,0-8.89,1.49-12.11,4.46-3.22,2.97-4.83,6.64-4.83,11v47.26h-20.36Z"/>
      <path class="cls-1" d="M253.33,112.13c-6.54,0-12.43-1.78-17.68-5.35-5.25-3.57-9.44-8.42-12.56-14.56-3.12-6.14-4.68-13.13-4.68-20.95s1.56-15.08,4.68-21.18,7.38-10.87,12.78-14.34c5.4-3.47,11.52-5.2,18.35-5.2,5.55,0,10.4,1.11,14.56,3.34,4.16,2.23,7.48,5.13,9.96,8.69h0c0-5.75,4.66-10.4,10.4-10.4h9.81V110.64h-20.36v-10.55c-2.77,3.47-6.37,6.34-10.77,8.62-4.41,2.28-9.24,3.42-14.49,3.42Zm5.5-17.68c6.04,0,10.95-2.13,14.71-6.39,3.77-4.26,5.65-9.86,5.65-16.79s-1.88-12.53-5.65-16.79c-3.77-4.26-8.67-6.39-14.71-6.39s-10.77,2.13-14.49,6.39c-3.71,4.26-5.57,9.86-5.57,16.79s1.86,12.53,5.57,16.79c3.72,4.26,8.55,6.39,14.49,6.39Z"/>
    </g>
  </g>
</svg>